<svg xmlns='http://www.w3.org/2000/svg'>
  <symbol id="icon-service" viewBox="0 0 512 512">
    <path d="M390.973,177.961L390.973,129.67L364.957,129.67C364.957,129.67 364.951,129.668 364.951,129.665C362.107,116.745 357.027,104.662 350.131,93.851C350.122,93.837 350.124,93.817 350.136,93.805L368.507,75.434L334.362,41.288L315.969,59.681C305.175,52.79 293.112,47.713 280.213,44.863C280.163,44.852 280.126,44.806 280.126,44.754L280.126,18.822L231.834,18.822L231.834,44.866C231.834,44.87 231.831,44.875 231.827,44.875C218.917,47.735 206.845,52.827 196.044,59.733L177.598,41.287L143.453,75.432L161.931,93.911C155.057,104.7 149.994,116.752 147.155,129.639C147.151,129.656 147.136,129.668 147.119,129.668L120.987,129.668L120.987,177.96L147.178,177.96C150.029,190.839 155.104,202.883 161.985,213.664L143.453,232.196L177.598,266.341L196.13,247.809C206.911,254.691 218.955,259.763 231.834,262.615L231.834,288.806L280.126,288.806L280.126,262.646C293.023,259.806 305.086,254.74 315.883,247.863L334.362,266.341L368.507,232.196L350.061,213.75C356.961,202.962 362.049,190.903 364.91,178.007C364.916,177.98 364.94,177.96 364.97,177.96L390.973,177.96L390.973,177.961Z" style="fill:rgb(1,240,221);fill-rule:nonzero;"/>
    <path d="M401.048,180.92C399.155,185.065 396.096,188.355 390.868,188.355C390.868,188.355 373.045,188.46 373.045,188.46C370.618,196.62 367.323,204.558 363.259,212.044C363.259,212.044 375.932,224.772 375.932,224.772L377.601,226.946C379.031,230.398 379.411,234.31 377.601,237.446C377.144,238.237 376.488,238.896 375.932,239.621L341.787,273.766C338.095,276.599 333.129,277.754 329.112,275.435C328.321,274.978 327.662,274.322 326.937,273.766L314.202,261.031C313.801,261.25 313.397,261.464 312.993,261.679C305.915,265.406 298.508,268.427 290.87,270.708L290.626,270.78L290.626,288.806L290.268,291.523C288.84,294.971 286.388,297.998 282.843,298.948C281.961,299.184 281.032,299.187 280.126,299.306L231.834,299.306C227.238,298.701 222.905,296.049 221.692,291.523C221.456,290.641 221.453,289.712 221.334,288.806L221.334,270.74C220.932,270.62 220.53,270.499 220.128,270.376C212.434,267.999 204.943,264.85 197.838,261C197.838,261 185.023,273.766 185.023,273.766L182.848,275.435C179.4,276.863 175.526,277.269 172.348,275.435C171.557,274.978 170.898,274.322 170.173,273.766L136.028,239.621C133.195,235.929 132.04,230.963 134.359,226.946C134.816,226.155 135.472,225.496 136.028,224.772L148.811,211.988C148.595,211.592 148.383,211.194 148.171,210.796C144.456,203.759 141.418,196.346 139.126,188.704L139.053,188.46L120.987,188.46L118.269,188.102C114.821,186.674 111.794,184.222 110.845,180.677C110.608,179.795 110.606,178.866 110.487,177.96L110.487,129.668C111.094,125.055 113.789,120.726 118.269,119.526C119.152,119.29 120.081,119.288 120.987,119.168L139.013,119.168C139.134,118.758 139.258,118.347 139.383,117.938C141.753,110.24 144.896,102.742 148.74,95.632C148.74,95.632 136.028,82.857 136.028,82.857L134.359,80.682C132.929,77.23 132.549,73.318 134.359,70.182C134.816,69.391 135.472,68.732 136.028,68.007L170.173,33.862C173.851,31.04 178.79,29.851 182.848,32.193C183.639,32.65 184.298,33.306 185.023,33.862L197.715,46.555C198.116,46.336 198.519,46.12 198.922,45.906C206.005,42.16 213.417,39.125 221.062,36.83L221.334,36.749L221.334,18.822L221.692,16.105C223.122,12.653 225.619,9.617 229.117,8.68C229.999,8.444 230.928,8.442 231.834,8.322L280.126,8.322C284.739,8.93 289.068,11.625 290.268,16.105C290.504,16.987 290.507,17.917 290.626,18.822L290.626,36.709C291.061,36.836 291.495,36.968 291.929,37.101C299.632,39.478 307.138,42.63 314.252,46.484C314.252,46.484 326.937,33.864 326.937,33.864L329.112,32.195C332.564,30.765 336.476,30.384 339.612,32.195C340.403,32.652 341.062,33.307 341.787,33.864L375.932,68.009C378.765,71.701 379.92,76.667 377.601,80.684C377.144,81.475 376.488,82.133 375.932,82.858L363.289,95.501C363.514,95.915 363.736,96.331 363.957,96.747C367.696,103.838 370.723,111.256 373.009,118.907L373.087,119.17L390.973,119.17L393.691,119.528C397.143,120.958 400.178,123.455 401.115,126.952C401.352,127.835 401.354,128.764 401.473,129.67L401.473,177.961C401.331,178.947 401.19,179.934 401.048,180.92ZM321.056,238.726L323.308,240.438L334.362,251.492L353.658,232.196L342.636,221.174C341.489,219.665 340.327,218.113 339.872,216.288C338.458,210.612 343.208,205.275 346.213,199.342C350.072,191.724 352.898,183.619 354.761,175.279C354.761,175.279 355.433,173.416 356.531,171.671C356.545,171.648 358.296,169.223 360.619,168.398C361.293,168.158 362.297,167.804 362.297,167.804L364.529,167.46L380.473,167.46L380.473,140.17L364.957,140.17L363.101,140.004C360.979,139.425 360.998,139.356 359.043,138.347L359.041,138.345C357.01,136.534 356.999,136.522 355.504,134.248C355.504,134.248 354.771,132.243 354.575,131.375C354.513,131.101 354.449,130.828 354.386,130.555C351.763,119.454 347.221,108.84 341.08,99.184C341.08,99.184 339.825,96.595 339.626,93.73C339.573,92.963 339.901,91.043 340.226,90.326C340.997,88.621 341.009,88.622 342.071,87.082L342.711,86.38L353.658,75.434L334.362,56.138L323.394,67.106C320.326,69.439 316.527,70.83 312.903,69.723C311.101,69.173 309.567,68.039 308.008,67.099C298.647,61.491 288.375,57.435 277.754,55.072C277.754,55.072 274.529,54.171 272.527,52.059C270.756,50.189 269.749,47.78 269.626,44.985L269.626,29.322L242.334,29.322L242.334,44.866C242.334,44.866 242.198,46.554 242.198,46.554C241.79,48.204 241.789,48.208 241.12,49.77L241.118,49.773C240.044,51.415 240.04,51.42 238.679,52.833L238.676,52.835C236.672,54.19 236.662,54.196 234.4,55.055C234.4,55.055 229.913,56.073 226.275,57.193C217.618,59.857 209.329,63.716 201.689,68.587L199.117,69.774C196.259,70.24 193.336,70.265 190.875,68.872C190.053,68.407 189.371,67.729 188.62,67.158L177.598,56.136L158.302,75.432L169.356,86.486C170.502,87.993 171.663,89.543 172.118,91.365C173.534,97.033 168.801,102.37 165.809,108.302C161.999,115.854 159.187,123.881 157.343,132.194L157.264,132.476C156.599,134.219 156.606,134.228 155.643,135.825C155.234,136.503 153.8,137.906 153.093,138.311C151.539,139.2 149.854,139.805 148.074,140.125L147.119,140.168L131.487,140.168L131.487,167.46L147.178,167.46C149.054,167.715 150.97,167.99 152.581,168.957C157.166,171.709 157.758,177.92 159.571,183.758C160.66,187.264 161.942,190.71 163.409,194.076C165.514,198.908 168.008,203.57 170.843,208.027L172.027,210.598C172.492,213.455 172.515,216.376 171.123,218.835C170.658,219.656 169.981,220.337 169.41,221.088L158.302,232.196L177.598,251.492L188.706,240.384C190.214,239.237 191.764,238.076 193.588,237.621C198.806,236.32 203.699,240.367 209.068,243.193C216.971,247.35 225.421,250.427 234.119,252.367L236.772,253.349C239.119,255.041 241.199,257.09 241.953,259.811C242.205,260.72 242.207,261.68 242.334,262.615L242.334,278.306L269.626,278.306L269.626,262.646C269.881,260.767 270.157,258.849 271.126,257.238C273.883,252.649 280.101,252.065 285.949,250.256C294.503,247.611 302.697,243.798 310.254,238.999L312.825,237.818C315.609,237.368 315.627,237.367 318.429,237.676C319.305,238.026 320.181,238.376 321.056,238.726ZM375.058,180.74C375.058,180.74 375.127,180.433 375.058,180.74ZM374.983,126.415C375.354,128.047 374.769,125.487 374.983,126.415ZM359.184,88.52C359.184,88.52 359.127,88.429 359.184,88.52Z" style="fill-rule:nonzero;"/>
    <circle cx="255.98" cy="153.817" r="27.998" style="fill:white;"/>
    <rect x="9.999" y="323.864" width="93.423" height="178.116" style="fill:rgb(1,162,149);"/>
    <path d="M234.331,329.262L335.039,354.822C347.605,358.012 355.947,369.914 354.659,382.814C353.321,396.206 342.053,406.404 328.595,406.404L258.312,406.404L280.998,406.474L330.587,406.474C344.543,406.474 357.98,401.186 368.192,391.675L454.139,311.631C464.183,302.277 479.472,301.424 490.495,309.601C504.784,320.202 505.952,341.168 492.929,353.291L374.533,463.512C364.543,472.811 351.402,477.982 337.753,477.982L103.421,477.982L103.421,357.992L186.113,330.903C201.704,325.794 218.428,325.225 234.331,329.262Z" style="fill:rgb(255,205,172);fill-rule:nonzero;"/>
    <path d="M511.939,330.321C511.301,318.879 505.657,308.4 496.454,301.572C481.562,290.522 460.899,291.674 447.326,304.314L364.767,381.201C365.27,364.285 354.151,349.355 337.498,345.13L236.67,319.539C218.989,315.051 200.473,315.656 183.122,321.29L113.419,343.92L113.419,323.863C113.419,318.341 108.941,313.864 103.42,313.864L9.999,313.864C4.477,313.864 0,318.342 0,323.863L0,501.98C0,507.502 4.478,511.979 9.999,511.979L103.421,511.979C108.943,511.979 113.42,507.501 113.42,501.98L113.42,364.947L189.298,340.312C203.054,335.845 217.734,335.367 231.751,338.922L332.58,364.513C340.411,366.501 345.513,373.779 344.71,381.821C343.88,390.135 336.952,396.406 328.596,396.406L248.314,396.406C242.792,396.406 238.315,400.884 238.315,406.405C238.315,411.926 242.793,416.404 248.314,416.404L279.856,416.404C280.232,416.447 280.613,416.474 281.001,416.474L330.59,416.474C347.13,416.474 362.904,410.265 375.011,398.993L460.958,318.949C467.473,312.881 477.392,312.33 484.542,317.633C488.96,320.91 491.668,325.94 491.974,331.433C492.281,336.926 490.146,342.225 486.12,345.974L367.72,456.194C359.553,463.796 348.909,467.983 337.752,467.983L182.796,467.983C177.274,467.983 172.797,472.461 172.797,477.982C172.797,483.503 177.275,487.981 182.796,487.981L337.754,487.981C353.984,487.981 369.466,481.89 381.348,470.831L499.745,360.611C508.132,352.803 512.577,341.763 511.939,330.321ZM93.422,491.981L19.998,491.981L19.998,333.863L93.421,333.863L93.421,491.981L93.422,491.981Z" style="fill-rule:nonzero;"/>
    <path d="M142.439,467.983C139.808,467.983 137.229,469.052 135.37,470.913C133.51,472.774 132.44,475.353 132.44,477.982C132.44,480.611 133.509,483.192 135.37,485.05C137.24,486.91 139.809,487.981 142.439,487.981C145.079,487.981 147.649,486.911 149.517,485.05C151.377,483.191 152.448,480.611 152.448,477.982C152.448,475.353 151.378,472.772 149.517,470.913C147.658,469.052 145.079,467.983 142.439,467.983Z" style="fill-rule:nonzero;"/>
    <path d="M56.706,477.652C59.336,477.652 61.916,476.582 63.785,474.722C65.644,472.862 66.705,470.282 66.705,467.653C66.705,465.013 65.644,462.443 63.785,460.574C61.915,458.714 59.335,457.654 56.706,457.654C54.077,457.654 51.496,458.714 49.637,460.574C47.777,462.444 46.707,465.024 46.707,467.653C46.707,470.283 47.776,472.853 49.637,474.722C51.506,476.582 54.076,477.652 56.706,477.652Z" style="fill-rule:nonzero;"/>
    <path d="M255.98,191.812C276.931,191.812 293.977,174.766 293.977,153.815C293.977,132.864 276.931,115.818 255.98,115.818C235.029,115.818 217.983,132.864 217.983,153.815C217.983,174.766 235.029,191.812 255.98,191.812ZM255.98,135.816C265.904,135.816 273.979,143.89 273.979,153.815C273.979,163.739 265.905,171.814 255.98,171.814C246.056,171.814 237.981,163.74 237.981,153.815C237.981,143.891 246.056,135.816 255.98,135.816Z" style="fill-rule:nonzero;"/>
    <path d="M56.711,440.985C62.233,440.985 66.71,436.507 66.71,430.986L66.71,361.991C66.71,356.469 62.232,351.992 56.711,351.992C51.19,351.992 46.712,356.47 46.712,361.991L46.712,430.986C46.711,436.508 51.188,440.985 56.711,440.985Z" style="fill-rule:nonzero;"/>
  </symbol>
  <symbol id="icon-earth" viewBox="0 0 512 512">
    <circle cx="209.984" cy="255.989" r="199.984" style="fill:rgb(1,240,221);"/>
    <g>
        <path d="M385.479,351.94L316.069,350.44C286.495,343.523 256.209,358.759 244.137,386.629L215.054,455.906C288.593,454.076 352.272,412.545 385.479,351.94Z" style="fill:rgb(163,237,92);fill-rule:nonzero;"/>
        <path d="M9.999,255.986C9.999,348.655 73.033,426.59 158.56,449.284L144.312,401.77C133.368,365.272 150.455,326.216 184.689,309.484L194.739,304.571C208.119,298.031 213.108,281.49 205.574,268.643C200.981,260.811 192.582,255.999 183.503,255.999L159.637,255.999C135.559,255.999 121.589,228.744 135.648,209.197L157.217,179.207C165.082,168.271 164.555,153.399 155.936,143.047L107.145,84.446C48.946,119.41 9.999,183.146 9.999,255.986Z" style="fill:rgb(163,237,92);fill-rule:nonzero;"/>
    </g>
    <g>
        <path d="M352.791,10.018C352.376,10.381 303.673,54.391 297.679,121.478C297.279,125.951 297.07,130.525 297.077,135.196C297.19,209.94 353.086,204.853 353.086,204.853C353.086,204.853 408.998,210.14 408.884,135.396C408.877,130.724 408.652,126.148 408.235,121.671C401.993,54.521 352.791,10.018 352.791,10.018Z" style="fill:rgb(89,170,51);fill-rule:nonzero;"/>
        <path d="M246.238,264.844C294.804,313.57 330.898,270.594 330.898,270.594C330.898,270.594 373.733,234.381 325.166,185.655C276.599,136.929 204.865,143.518 204.3,143.579C204.3,143.58 197.672,216.119 246.238,264.844Z" style="fill:rgb(89,170,51);fill-rule:nonzero;"/>
        <path d="M501.668,143.58C501.103,143.519 429.368,136.93 380.801,185.656C332.234,234.382 375.069,270.595 375.069,270.595C375.069,270.595 411.163,313.572 459.729,264.845C508.295,216.118 501.668,143.58 501.668,143.58Z" style="fill:rgb(89,170,51);fill-rule:nonzero;"/>
    </g>
    <path d="M297.078,135.234C297.083,135.234 297.089,135.234 297.094,135.234C302.617,135.225 307.086,130.741 307.077,125.219C307.071,121.356 307.258,117.438 307.633,113.574C308.052,109.256 308.707,105.05 309.547,100.954L341.626,133.033C342.048,133.455 342.504,133.823 342.977,134.154L342.977,158.507C342.977,164.03 347.455,168.506 352.976,168.506C358.497,168.506 362.975,164.029 362.975,158.507L362.975,106.887L389.926,79.936C393.989,90.264 397.058,101.615 398.288,113.794C398.679,117.65 398.88,121.567 398.887,125.439C398.897,130.956 403.372,135.42 408.886,135.42C408.892,135.42 408.898,135.42 408.905,135.42C414.427,135.41 418.895,130.925 418.885,125.403C418.877,120.874 418.641,116.292 418.185,111.783C411.607,46.658 361.326,4.113 359.19,2.334C355.529,-0.714 350.226,-0.756 346.518,2.233C345.995,2.654 294.184,45.117 287.728,111.643C287.29,116.158 287.072,120.736 287.079,125.252C287.087,130.769 291.562,135.234 297.078,135.234ZM380.772,60.804L362.972,78.604L362.972,35.05C368.638,41.887 374.996,50.579 380.772,60.804ZM342.975,34.516L342.975,102.525C342.972,102.679 342.972,102.831 342.975,102.985L342.975,106.101L316.049,79.175C323.442,60.395 334.11,45.129 342.975,34.516Z" style="fill-rule:nonzero;"/>
    <path d="M501.97,491.98L501.854,491.98C496.332,491.98 491.855,496.458 491.855,501.979C491.855,507.501 496.333,511.978 501.854,511.978L501.97,511.978C507.492,511.978 511.969,507.5 511.969,501.979C511.969,496.458 507.491,491.98 501.97,491.98Z" style="fill-rule:nonzero;"/>
    <path d="M469.305,491.98L362.981,491.98L362.981,455.42L377.718,440.683C381.623,436.778 381.623,430.448 377.718,426.541C373.813,422.639 367.484,422.637 363.576,426.541L362.98,427.137L362.98,399.793C383.282,378.208 398.518,353.154 408.254,325.298C410.077,320.084 407.328,314.382 402.114,312.56C396.899,310.736 391.197,313.487 389.376,318.7C383.077,336.72 374.224,353.44 362.979,368.652L362.979,296.89L375.372,284.456C382.738,290.238 394.905,297.379 410.636,298.049C411.451,298.083 412.265,298.101 413.079,298.101C431.411,298.101 449.475,289.297 466.811,271.905C518.088,220.458 511.911,145.823 511.624,142.67C511.189,137.925 507.468,134.145 502.73,133.638C501.968,133.556 426.045,126.097 373.717,178.597C364.207,188.138 357.301,197.899 352.982,207.802C348.663,197.901 341.758,188.139 332.248,178.597C279.921,126.098 203.995,133.556 203.235,133.638C198.497,134.145 194.776,137.926 194.341,142.67C194.054,145.822 187.877,220.458 239.154,271.905C256.49,289.299 274.552,298.101 292.885,298.101C293.698,298.101 294.514,298.083 295.328,298.049C311.06,297.378 323.227,290.237 330.592,284.455L342.98,296.884L342.98,385.518L336.382,378.92C332.476,375.016 326.147,375.016 322.24,378.92C318.335,382.825 318.335,389.156 322.24,393.062L342.979,413.801L342.979,491.98L10.003,491.98C4.481,491.98 0.004,496.458 0.004,501.979C0.004,507.501 4.482,511.978 10.003,511.978L469.3,511.978C474.822,511.978 479.299,507.5 479.299,501.979C479.3,496.457 474.827,491.98 469.305,491.98ZM405.636,178.085C430.422,161.349 458.093,155.738 477.166,153.996L405.636,225.762L405.636,178.085ZM482.97,207.568L452.006,207.568L491.172,168.273C490.15,179.279 487.862,193.099 482.97,207.568ZM452.649,257.786C438.746,271.735 424.972,278.554 411.707,278.076C402.373,277.734 394.724,273.763 389.631,270.152L432.076,227.567L474.509,227.567C469.058,238.102 461.952,248.451 452.649,257.786ZM385.638,195.041L385.638,245.827L375.515,255.984C371.951,250.913 368.052,243.331 367.657,234.071C367.115,221.409 373.169,208.29 385.638,195.041ZM338.322,233.85C337.98,243.2 334.042,250.865 330.449,255.979L320.331,245.827L320.331,195.04C332.726,208.212 338.782,221.257 338.322,233.85ZM228.801,153.997C247.875,155.74 275.546,161.35 300.33,178.085L300.33,225.762L228.801,153.997ZM214.794,168.273L253.96,207.568L222.997,207.568C218.106,193.098 215.818,179.278 214.794,168.273ZM294.478,278.067C281.138,278.633 267.298,271.81 253.32,257.786C244.017,248.452 236.909,238.103 231.461,227.566L273.893,227.566L303.258,257.028C303.259,257.029 303.261,257.031 303.262,257.032L316.343,270.156C311.293,273.739 303.725,277.673 294.478,278.067Z" style="fill-rule:nonzero;"/>
    <path d="M266.36,74.502L266.573,74.568C267.551,74.868 268.539,75.011 269.511,75.011C273.788,75.011 277.746,72.245 279.067,67.945C280.688,62.665 277.722,57.072 272.443,55.451L272.326,55.414C267.061,53.768 261.447,56.705 259.8,61.975C258.153,67.245 261.089,72.855 266.36,74.502Z" style="fill-rule:nonzero;"/>
    <path d="M155.206,458.707C155.698,458.883 156.203,459.02 156.72,459.118C173.737,463.584 191.585,465.97 209.984,465.97C247.364,465.97 284.07,456.022 316.135,437.201C320.898,434.405 322.492,428.279 319.697,423.515C316.902,418.751 310.776,417.157 306.011,419.953C282.7,433.637 256.666,442.122 229.78,444.928L253.312,390.602C263.471,367.151 288.913,354.356 313.791,360.175L324.292,362.632C329.669,363.886 335.048,360.551 336.307,355.174C337.565,349.796 334.225,344.418 328.849,343.159L318.347,340.702C284.03,332.677 248.967,350.319 234.962,382.653L207.548,445.938C193.446,445.76 179.709,444.046 166.499,440.941L153.891,398.895C144.309,366.941 159.109,333.114 189.079,318.463L199.13,313.551C208,309.215 214.723,301.307 217.573,291.855C220.424,282.404 219.195,272.098 214.2,263.581C207.84,252.735 196.077,245.996 183.504,245.996L159.638,245.996C152.158,245.996 145.653,242.021 142.241,235.364C138.828,228.707 139.398,221.105 143.766,215.032L165.335,185.041C175.863,170.403 175.158,150.502 163.621,136.645L122.57,87.342C148.753,73.716 178.483,66.001 209.983,66.001C215.928,66.001 221.93,66.279 227.825,66.827C233.307,67.336 238.195,63.295 238.707,57.797C239.219,52.298 235.175,47.426 229.677,46.915C223.17,46.31 216.545,46.003 209.985,46.003C171.002,46.003 134.474,56.694 103.155,75.279C102.421,75.599 101.718,76.016 101.057,76.525C40.513,113.408 0,180.055 0,255.986C0,352.825 65.901,434.55 155.206,458.707ZM105.124,97.641L148.254,149.443C153.957,156.293 154.306,166.131 149.101,173.367L127.532,203.358C118.827,215.461 117.644,231.222 124.444,244.49C131.244,257.757 144.73,265.998 159.638,265.998L183.505,265.998C189.013,265.998 194.164,268.949 196.95,273.7C199.17,277.485 199.694,281.883 198.428,286.084C197.16,290.285 194.291,293.66 190.35,295.587L180.299,300.499C141.491,319.469 122.329,363.266 134.736,404.641L143.53,433.968C71.45,406.966 20,337.377 20,255.986C19.998,189.959 53.861,131.703 105.124,97.641Z" style="fill-rule:nonzero;"/>
  </symbol>
</svg>
